<?xml version="1.0" encoding="utf-8"?>
<!-- Generator: Adobe Illustrator 19.1.0, SVG Export Plug-In . SVG Version: 6.00 Build 0)  -->
<svg version="1.1" id="Layer_1" xmlns="http://www.w3.org/2000/svg" xmlns:xlink="http://www.w3.org/1999/xlink" x="0px" y="0px"
	 viewBox="0 0 10.2 16.3" style="enable-background:new 0 0 10.2 16.3;" xml:space="preserve">
<style type="text/css">
	.st0{fill:#FFFFFF;}
</style>
<g>
	<path class="st0" d="M6.1,14.4v1.9H4.5v-1.9c-1.7-0.2-3.2-0.9-4.5-1.9l1.2-1.7c1.1,0.9,2.1,1.4,3.3,1.6V8.7
		C1.8,7.9,0.5,6.9,0.5,4.7c0-2.1,1.6-3.5,4-3.6V0h1.7v1.1c1.4,0.2,2.5,0.7,3.6,1.4L8.6,4.4C7.8,3.7,7,3.3,6.1,3.2v3.6
		c2.9,0.7,4.1,1.9,4.1,3.9C10.2,12.8,8.5,14.2,6.1,14.4z M4.6,3C3.4,3.1,2.7,3.8,2.7,4.6c0,0.8,0.4,1.3,1.8,1.7V3z M6.1,9v3.4
		c1.2-0.1,1.9-0.7,1.9-1.6C7.9,10,7.5,9.5,6.1,9z"/>
</g>
</svg>
