<?xml version="1.0" encoding="utf-8"?>
<!-- Generator: Adobe Illustrator 19.1.0, SVG Export Plug-In . SVG Version: 6.00 Build 0)  -->
<svg version="1.1" id="Layer_1" xmlns="http://www.w3.org/2000/svg" xmlns:xlink="http://www.w3.org/1999/xlink" x="0px" y="0px"
	 viewBox="0 0 16.7 14.6" style="enable-background:new 0 0 16.7 14.6;" xml:space="preserve">
<style type="text/css">
	.st0{fill:#00AEEF;}
</style>
<path class="st0" d="M10.3,1.3c-2.8-2.1-6.9-1.6-9,1.3c-2.1,2.8-1.6,6.9,1.3,9c2.5,1.9,6,1.7,8.2-0.4l4.5,3.4l1.5-1.9l-4.5-3.4
	C13.6,6.6,12.8,3.2,10.3,1.3z M9.7,8.9C8.3,10.7,5.8,11,4,9.7C2.2,8.3,1.9,5.8,3.2,4c1.3-1.8,3.9-2.1,5.6-0.8
	C10.6,4.6,11,7.1,9.7,8.9z"/>
</svg>
